# xmcd
# 
# Track frame offsets:
#     150
#     17703
#     32590
#     59516
# 
# Disc length: 1044
# 
# Revision: 0
# Processed by: cddbd v1.5.2PL0 Copyright (c) Steve Scherf et al.
# Submitted via: fre:ac v1.0.17
# 
DISCID=2b041204
DTITLE=Bizzy B. - Du Schaffst Mich!
DYEAR=1997
DGENRE=Pop
TTITLE0=Du Schaffst Mich! (Favorite Sad Mix - Radio Edit)
TTITLE1=Du Schaffst Mich! (Original Mix - Radio Edit)
TTITLE2=Du Schaffst Mich! (Favorite Sad Mix)
TTITLE3=Du Schaffst Mich! (Urban Club Mix)
EXTD=
EXTT0=
EXTT1=
EXTT2=
EXTT3=
PLAYORDER=
